<!-- Generator: Adobe Illustrator 22.1.0, SVG Export Plug-In . SVG Version: 6.00 Build 0)  -->
<svg xmlns="http://www.w3.org/2000/svg" xmlns:xlink="http://www.w3.org/1999/xlink" version="1.1" id="Слой_1" x="0px" y="0px" viewBox="0 0 148.3 48.5" style="enable-background:new 0 0 148.3 48.5;" xml:space="preserve">
<style type="text/css">
	.st0{fill:#020000;}
	.st1{fill:#FFFFFF;}
	.st2{fill:#EC1A3B;}
</style>
<g>
	<g>
		<g>
			<path class="st0" d="M43.5,8c2.8,0,4.5,1.8,4.5,4.3c0,2.6-1.7,4.1-4.5,4.1h-5.5v4.3h-2.4V8H43.5z M43.6,14.4c1.2,0,2-0.8,2-2     c0-1.3-0.8-2.3-2.1-2.3h-5.5v4.2H43.6z"/>
			<path class="st0" d="M56.8,21.1c-4.1,0-7.4-2.7-7.4-6.7c0-4,3.4-6.7,7.4-6.7c4.1,0,7.4,2.8,7.4,6.7     C64.2,18.4,60.9,21.1,56.8,21.1 M56.8,9.8c-3,0-5,2-5,4.6c0,2.6,1.9,4.6,5,4.6c3,0,4.9-2,4.9-4.6C61.7,11.8,59.8,9.8,56.8,9.8"/>
			<path class="st0" d="M74,21.1c-4.3,0-7.5-2.7-7.5-6.7c0-4,3.3-6.7,7.5-6.7c2.5,0,4.3,0.7,5.9,1.9l-1.3,1.9     C77.5,10.5,76,9.9,74,9.9c-3.1,0-5.1,2-5.1,4.5c0,2.6,2,4.5,5.1,4.5c2,0,3.5-0.6,4.7-1.5l1.3,1.9C78.4,20.4,76.5,21.1,74,21.1"/>
			<path class="st0" d="M100.4,17.7l-1.5,3.1h-2.6L102.6,8h2.5l6.2,12.7h-2.5l-1.5-3.1H100.4z M101.4,15.6h4.9l-2.4-5.2L101.4,15.6z     "/>
			<polygon class="st0" points="123.8,20.8 123.8,15.3 115.5,15.3 115.5,20.8 113.1,20.8 113.1,8 115.5,8 115.5,13.2 123.8,13.2      123.8,8 126.2,8 126.2,20.8    "/>
			<polygon class="st0" points="129.7,20.8 129.7,8 132,8 132,14 138.4,8 141.3,8 134.7,14.2 141.6,20.8 138.4,20.8 132,14.6      132,20.8    "/>
			<path class="st0" d="M90.6,12.7H85V10h9.1V8H85h-2.4v12.7h7.9c2.8,0,4.7-1.5,4.7-4C95.3,14.1,93.3,12.7,90.6,12.7 M90.7,18.7H85     v-3.8h5.7c1.5,0,2.3,0.8,2.3,1.9C93,18,92.3,18.7,90.7,18.7"/>
			<g>
				<path class="st0" d="M80.1,41.9v0.1c0,0.7-0.2,1.3-0.6,1.7c-0.4,0.4-1,0.7-1.7,0.7c-0.6,0-1.2-0.2-1.6-0.6      c-0.5-0.4-0.7-1-0.7-1.8c0-0.7,0.2-1.3,0.7-1.7c0.4-0.4,1-0.6,1.6-0.6c0.8,0,1.4,0.3,1.9,1l-0.6,0.4c-0.4-0.4-0.8-0.6-1.3-0.6      c-0.5,0-0.9,0.1-1.2,0.4c-0.3,0.3-0.5,0.7-0.5,1.1c0,0.5,0.1,0.8,0.4,1.1c0.3,0.3,0.7,0.4,1.2,0.4c0.7,0,1.2-0.3,1.4-1h-1.6      v-0.8H80.1z"/>
				<path class="st0" d="M85.3,44.3h-0.8l-0.9-1.6h-1.8v1.6h-0.7v-4.4H84c0.4,0,0.7,0.1,0.9,0.4c0.2,0.3,0.3,0.6,0.3,1      c0,0.7-0.3,1.2-0.9,1.3L85.3,44.3z M83.9,41.9c0.4,0,0.6-0.2,0.6-0.6c0-0.4-0.2-0.6-0.7-0.6h-2v1.2H83.9z"/>
				<path class="st0" d="M90.7,42.1c0,0.7-0.2,1.3-0.7,1.8c-0.4,0.4-0.9,0.6-1.6,0.6c-0.6,0-1.2-0.2-1.6-0.6c-0.5-0.4-0.7-1-0.7-1.8      c0-0.7,0.2-1.3,0.7-1.7c0.4-0.4,1-0.6,1.6-0.6c0.6,0,1.1,0.2,1.6,0.6C90.4,40.8,90.7,41.4,90.7,42.1 M90,42.1      c0-0.5-0.1-0.8-0.4-1.1c-0.3-0.3-0.7-0.4-1.2-0.4c-0.5,0-0.9,0.1-1.2,0.4c-0.3,0.3-0.5,0.7-0.5,1.1c0,0.5,0.1,0.8,0.4,1.1      c0.3,0.3,0.7,0.4,1.2,0.4c0.5,0,0.9-0.1,1.2-0.4C89.8,43,90,42.6,90,42.1"/>
				<path class="st0" d="M95.7,42.9c0,0.5-0.2,0.8-0.6,1.1c-0.4,0.3-0.9,0.4-1.5,0.4c-0.6,0-1.1-0.1-1.5-0.4      c-0.4-0.3-0.6-0.7-0.6-1.1v-3h0.7v2.8c0,0.7,0.5,1,1.4,1c0.9,0,1.4-0.3,1.4-1v-2.8h0.7V42.9z"/>
				<path class="st0" d="M99.7,39.9c0.4,0,0.7,0.1,0.9,0.4c0.2,0.3,0.3,0.6,0.3,1c0,0.4-0.1,0.8-0.3,1c-0.2,0.2-0.6,0.4-1,0.4h-2      v1.6h-0.7v-4.4H99.7z M99.6,41.9c0.4,0,0.6-0.2,0.6-0.6c0-0.4-0.2-0.6-0.7-0.6h-2v1.2H99.6z"/>
				<path class="st0" d="M5.3,41c-0.5-0.3-1-0.4-1.5-0.4c-0.8,0-1.2,0.2-1.2,0.5c0,0.2,0.1,0.3,0.4,0.4c0.4,0,0.8,0.1,1.2,0.1      c0.6,0.1,1,0.2,1.2,0.4c0.3,0.2,0.4,0.5,0.4,0.9c0,0.5-0.2,0.8-0.5,1.1c-0.3,0.3-0.8,0.4-1.5,0.4c-0.9,0-1.6-0.3-2.2-0.8      l0.4-0.6c0.5,0.4,1.1,0.6,1.8,0.6c0.4,0,0.7-0.1,0.9-0.2c0.2-0.1,0.3-0.3,0.3-0.5c0-0.2-0.1-0.4-0.4-0.5      c-0.1-0.1-0.4-0.1-0.7-0.1c-0.5,0-0.8-0.1-0.9-0.1c-0.4-0.1-0.8-0.2-1-0.4c-0.2-0.2-0.3-0.4-0.3-0.8c0-0.4,0.2-0.8,0.5-1      c0.3-0.2,0.8-0.4,1.4-0.4c0.8,0,1.4,0.2,1.9,0.6L5.3,41z"/>
				<path class="st0" d="M11.2,42.1c0,0.7-0.2,1.3-0.7,1.8c-0.4,0.4-0.9,0.6-1.6,0.6c-0.6,0-1.2-0.2-1.6-0.6c-0.5-0.4-0.7-1-0.7-1.8      c0-0.7,0.2-1.3,0.7-1.7c0.4-0.4,1-0.6,1.6-0.6c0.6,0,1.1,0.2,1.6,0.6C10.9,40.8,11.2,41.4,11.2,42.1 M10.5,42.1      c0-0.5-0.1-0.8-0.4-1.1c-0.3-0.3-0.7-0.4-1.2-0.4c-0.5,0-0.9,0.1-1.2,0.4c-0.3,0.3-0.5,0.7-0.5,1.1c0,0.5,0.1,0.8,0.4,1.1      c0.3,0.3,0.7,0.4,1.2,0.4c0.5,0,0.9-0.1,1.2-0.4C10.3,43,10.5,42.6,10.5,42.1"/>
				<path class="st0" d="M16.4,41l-0.6,0.3c-0.4-0.5-0.9-0.7-1.4-0.7c-0.5,0-0.9,0.1-1.2,0.4c-0.3,0.3-0.4,0.7-0.4,1.1      c0,0.5,0.1,0.9,0.4,1.1c0.3,0.3,0.7,0.4,1.2,0.4c0.6,0,1.1-0.2,1.4-0.7l0.6,0.4c-0.5,0.7-1.2,1.1-2,1.1c-0.7,0-1.3-0.2-1.7-0.7      c-0.4-0.4-0.7-1-0.7-1.7c0-0.7,0.2-1.3,0.7-1.7c0.4-0.4,1-0.6,1.6-0.6C15.2,39.8,15.9,40.2,16.4,41"/>
				<rect x="17.4" y="39.9" class="st0" width="0.7" height="4.4"/>
				<polygon class="st0" points="23.1,44.3 19.3,44.3 19.3,39.9 22.9,39.9 22.9,40.7 20,40.7 20,41.7 22,41.7 22,42.4 20,42.4       20,43.6 23.1,43.6     "/>
				<polygon class="st0" points="27.5,40.7 25.9,40.7 25.9,44.3 25.2,44.3 25.2,40.7 23.5,40.7 23.5,39.9 27.5,39.9     "/>
				<polygon class="st0" points="32.1,44.3 28.3,44.3 28.3,39.9 32,39.9 32,40.7 29,40.7 29,41.7 31.1,41.7 31.1,42.4 29,42.4       29,43.6 32.1,43.6     "/>
				<path class="st0" d="M39.1,41.9v0.1c0,0.7-0.2,1.3-0.6,1.7c-0.4,0.4-1,0.7-1.7,0.7c-0.6,0-1.2-0.2-1.6-0.6      c-0.5-0.4-0.7-1-0.7-1.8c0-0.7,0.2-1.3,0.7-1.7c0.4-0.4,1-0.6,1.6-0.6c0.8,0,1.4,0.3,1.9,1l-0.6,0.4c-0.4-0.4-0.8-0.6-1.3-0.6      c-0.5,0-0.9,0.1-1.2,0.4c-0.3,0.3-0.5,0.7-0.5,1.1c0,0.5,0.1,0.8,0.4,1.1c0.3,0.3,0.7,0.4,1.2,0.4c0.7,0,1.2-0.3,1.4-1h-1.6      v-0.8H39.1z"/>
				<polygon class="st0" points="43.9,44.3 40.1,44.3 40.1,39.9 43.8,39.9 43.8,40.7 40.8,40.7 40.8,41.7 42.8,41.7 42.8,42.4       40.8,42.4 40.8,43.6 43.9,43.6     "/>
				<polygon class="st0" points="48.9,44.3 47.9,44.3 45.5,40.7 45.5,44.3 44.8,44.3 44.8,39.9 45.8,39.9 48.2,43.6 48.2,39.9       48.9,39.9     "/>
				<polygon class="st0" points="53.9,44.3 50.1,44.3 50.1,39.9 53.7,39.9 53.7,40.7 50.8,40.7 50.8,41.7 52.8,41.7 52.8,42.4       50.8,42.4 50.8,43.6 53.9,43.6     "/>
				<path class="st0" d="M58.9,44.3h-0.8l-0.9-1.6h-1.8v1.6h-0.7v-4.4h2.8c0.4,0,0.7,0.1,0.9,0.4c0.2,0.3,0.3,0.6,0.3,1      c0,0.7-0.3,1.2-0.9,1.3L58.9,44.3z M57.5,41.9c0.4,0,0.6-0.2,0.6-0.6c0-0.4-0.2-0.6-0.7-0.6h-2v1.2H57.5z"/>
				<path class="st0" d="M64.1,44.3h-0.8l-0.4-0.9h-2.4l-0.4,0.9h-0.8l1.9-4.4h0.9L64.1,44.3z M62.5,42.6l-0.8-2l-0.8,2H62.5z"/>
				<polygon class="st0" points="68.1,44.3 64.7,44.3 64.7,39.9 65.4,39.9 65.4,43.6 68.1,43.6     "/>
				<polygon class="st0" points="72.7,44.3 68.9,44.3 68.9,39.9 72.6,39.9 72.6,40.7 69.6,40.7 69.6,41.7 71.6,41.7 71.6,42.4       69.6,42.4 69.6,43.6 72.7,43.6     "/>
			</g>
		</g>
		<g>
			<rect x="0.7" y="0.8" class="st1" width="27.1" height="27.1"/>
			<g>
				<g>
					<rect x="1.5" y="1.6" class="st2" width="25.6" height="13"/>
					<rect x="1.5" y="14.3" class="st0" width="25.6" height="12.8"/>
					<rect x="5.9" y="13.6" class="st1" width="16.6" height="1.6"/>
				</g>
			</g>
		</g>
	</g>
</g>
</svg>